<svg width="29" height="28" viewBox="0 0 29 28" fill="none" xmlns="http://www.w3.org/2000/svg">
<path fill-rule="evenodd" clip-rule="evenodd" d="M25.298 11.3253C25.375 11.9101 25.375 12.6067 25.375 14C25.375 15.3933 25.375 16.0899 25.298 16.6747C24.7663 20.7133 21.5883 23.8913 17.5497 24.423C16.9649 24.5 16.2683 24.5 14.875 24.5H8.875C6.76831 24.5 5.71496 24.5 4.95829 23.9944C4.63072 23.7755 4.34947 23.4943 4.13059 23.1667C3.625 22.41 3.625 21.3567 3.625 19.25V14.375C3.625 12.633 3.625 11.762 3.74521 11.0339C4.37328 7.22977 7.35477 4.24828 11.1589 3.62021C11.887 3.5 12.758 3.5 14.5 3.5H14.875C16.2683 3.5 16.9649 3.5 17.5497 3.577C21.5883 4.10869 24.7663 7.28666 25.298 11.3253ZM19.125 12.8333C19.125 12.281 18.6773 11.8333 18.125 11.8333H10.875C10.3227 11.8333 9.875 12.281 9.875 12.8333C9.875 13.3856 10.3227 13.8333 10.875 13.8333H18.125C18.6773 13.8333 19.125 13.3856 19.125 12.8333ZM15.5 17.5C15.5 16.9477 15.0523 16.5 14.5 16.5H10.875C10.3227 16.5 9.875 16.9477 9.875 17.5C9.875 18.0523 10.3227 18.5 10.875 18.5H14.5C15.0523 18.5 15.5 18.0523 15.5 17.5Z" fill="#222222"/>
</svg>
