<svg width="31" height="28" viewBox="0 0 31 28" fill="none" xmlns="http://www.w3.org/2000/svg">
<path d="M2.58301 9.8335C2.58301 7.94788 2.58301 7.00507 3.16879 6.41928C3.75458 5.8335 4.69739 5.8335 6.58301 5.8335H24.4163C26.302 5.8335 27.2448 5.8335 27.8306 6.41928C28.4163 7.00507 28.4163 7.94788 28.4163 9.8335V10.6668C28.4163 11.1382 28.4163 11.3739 28.2699 11.5204C28.1234 11.6668 27.8877 11.6668 27.4163 11.6668H3.58301C3.1116 11.6668 2.8759 11.6668 2.72945 11.5204C2.58301 11.3739 2.58301 11.1382 2.58301 10.6668V9.8335Z" fill="#222222"/>
<path fill-rule="evenodd" clip-rule="evenodd" d="M2.58301 21.6667C2.58301 23.5523 2.58301 24.4951 3.16879 25.0809C3.75458 25.6667 4.69739 25.6667 6.58301 25.6667H24.4163C26.302 25.6667 27.2448 25.6667 27.8306 25.0809C28.4163 24.4951 28.4163 23.5523 28.4163 21.6667V15C28.4163 14.5286 28.4163 14.2929 28.2699 14.1464C28.1234 14 27.8877 14 27.4163 14H3.58301C3.1116 14 2.8759 14 2.72945 14.1464C2.58301 14.2929 2.58301 14.5286 2.58301 15V21.6667ZM9.04134 17.3333C9.04134 16.8619 9.04134 16.6262 9.18779 16.4798C9.33424 16.3333 9.56994 16.3333 10.0413 16.3333H13.208C13.6794 16.3333 13.9151 16.3333 14.0616 16.4798C14.208 16.6262 14.208 16.8619 14.208 17.3333V17.6667C14.208 18.1381 14.208 18.3738 14.0616 18.5202C13.9151 18.6667 13.6794 18.6667 13.208 18.6667H10.0413C9.56994 18.6667 9.33424 18.6667 9.18779 18.5202C9.04134 18.3738 9.04134 18.1381 9.04134 17.6667V17.3333ZM9.18779 21.1464C9.04134 21.2929 9.04134 21.5286 9.04134 22V22.3333C9.04134 22.8047 9.04134 23.0404 9.18779 23.1869C9.33424 23.3333 9.56994 23.3333 10.0413 23.3333H13.208C13.6794 23.3333 13.9151 23.3333 14.0616 23.1869C14.208 23.0404 14.208 22.8047 14.208 22.3333V22C14.208 21.5286 14.208 21.2929 14.0616 21.1464C13.9151 21 13.6794 21 13.208 21H10.0413C9.56994 21 9.33424 21 9.18779 21.1464ZM16.7913 17.3333C16.7913 16.8619 16.7913 16.6262 16.9378 16.4798C17.0842 16.3333 17.3199 16.3333 17.7913 16.3333H20.958C21.4294 16.3333 21.6651 16.3333 21.8116 16.4798C21.958 16.6262 21.958 16.8619 21.958 17.3333V17.6667C21.958 18.1381 21.958 18.3738 21.8116 18.5202C21.6651 18.6667 21.4294 18.6667 20.958 18.6667H17.7913C17.3199 18.6667 17.0842 18.6667 16.9378 18.5202C16.7913 18.3738 16.7913 18.1381 16.7913 17.6667V17.3333ZM16.9378 21.1464C16.7913 21.2929 16.7913 21.5286 16.7913 22V22.3333C16.7913 22.8047 16.7913 23.0404 16.9378 23.1869C17.0842 23.3333 17.3199 23.3333 17.7913 23.3333H20.958C21.4294 23.3333 21.6651 23.3333 21.8116 23.1869C21.958 23.0404 21.958 22.8047 21.958 22.3333V22C21.958 21.5286 21.958 21.2929 21.8116 21.1464C21.6651 21 21.4294 21 20.958 21H17.7913C17.3199 21 17.0842 21 16.9378 21.1464Z" fill="#222222"/>
<path d="M9.04199 3.5L9.04199 7" stroke="#222222" stroke-width="2" stroke-linecap="round"/>
<path d="M21.958 3.5L21.958 7" stroke="#222222" stroke-width="2" stroke-linecap="round"/>
</svg>
