<?xml version="1.0" encoding="utf-8"?>
<svg xmlns="http://www.w3.org/2000/svg" viewBox="173.941 113.574 21.583 22.067" xmlns:bx="https://boxy-svg.com" width="21.583px" height="22.067px"><defs><bx:export><bx:file format="svg"/></bx:export></defs><path fill-rule="evenodd" clip-rule="evenodd" d="M 174.364 120.689 C 173.941 121.51 173.941 122.443 173.941 124.31 L 173.941 130.141 C 173.941 132.734 173.941 134.03 174.844 134.835 C 175.723 135.619 177.124 135.64 179.879 135.641 L 179.879 128.766 C 179.879 127.35 181.127 126.391 182.42 126.391 L 187.045 126.391 C 188.338 126.391 189.587 127.35 189.587 128.766 L 189.587 135.641 C 192.342 135.64 193.742 135.619 194.621 134.835 C 195.524 134.03 195.524 132.734 195.524 130.141 L 195.524 124.31 C 195.524 122.443 195.524 121.51 195.101 120.689 C 194.678 119.869 193.883 119.261 192.294 118.047 L 190.753 116.868 C 187.88 114.672 186.444 113.574 184.733 113.574 C 183.022 113.574 181.586 114.672 178.713 116.868 L 177.171 118.047 C 175.582 119.261 174.787 119.869 174.364 120.689 Z M 187.587 135.641 L 187.587 128.766 C 187.587 128.702 187.56 128.621 187.47 128.54 C 187.378 128.458 187.23 128.391 187.045 128.391 L 182.42 128.391 C 182.235 128.391 182.088 128.458 181.996 128.54 C 181.905 128.621 181.879 128.702 181.879 128.766 L 181.879 135.641 L 187.587 135.641 Z" fill="black"/></svg>