<svg width="37" height="33" viewBox="0 0 37 33" fill="none" xmlns="http://www.w3.org/2000/svg">
<path fill-rule="evenodd" clip-rule="evenodd" d="M8.13114 13.9232C7.70801 14.7438 7.70801 15.6772 7.70801 17.5441V23.3747C7.70801 25.9674 7.70801 27.2638 8.6111 28.0692C9.49013 28.8532 10.8907 28.8741 13.6455 28.8747V21.9998C13.6455 20.5836 14.8941 19.6248 16.1872 19.6248H20.8122C22.1053 19.6248 23.3538 20.5836 23.3538 21.9998V28.8747C26.1087 28.8741 27.5092 28.8532 28.3883 28.0692C29.2913 27.2638 29.2913 25.9674 29.2913 23.3747V17.5441C29.2913 15.6772 29.2913 14.7438 28.8682 13.9232C28.4451 13.1027 27.6504 12.4952 26.0612 11.2803L24.5195 10.1017C21.6469 7.90564 20.2106 6.80762 18.4997 6.80762C16.7888 6.80762 15.3525 7.90564 12.4799 10.1017L10.9382 11.2803C9.3489 12.4952 8.55426 13.1027 8.13114 13.9232ZM21.3538 28.8747V21.9998C21.3538 21.9359 21.327 21.8544 21.2367 21.7738C21.1445 21.6916 20.9973 21.6248 20.8122 21.6248H16.1872C16.002 21.6248 15.8548 21.6916 15.7627 21.7738C15.6723 21.8544 15.6455 21.9359 15.6455 21.9998V28.8747H21.3538Z" fill="black"/>
</svg>
