<?xml version="1.0" encoding="utf-8"?>
<svg xmlns="http://www.w3.org/2000/svg" viewBox="177.795 119.485 25.834 22.167" xmlns:bx="https://boxy-svg.com" width="25.834px" height="22.167px"><defs><bx:export><bx:file format="svg"/></bx:export></defs><path d="M 177.795 125.819 C 177.795 123.933 177.795 122.99 178.381 122.404 C 178.967 121.819 179.91 121.819 181.795 121.819 L 199.629 121.819 C 201.514 121.819 202.457 121.819 203.043 122.404 C 203.629 122.99 203.629 123.933 203.629 125.819 L 203.629 126.652 C 203.629 127.123 203.629 127.359 203.482 127.506 C 203.336 127.652 203.1 127.652 202.629 127.652 L 178.795 127.652 C 178.324 127.652 178.088 127.652 177.942 127.506 C 177.795 127.359 177.795 127.123 177.795 126.652 L 177.795 125.819 Z" fill="#222222"/><path fill-rule="evenodd" clip-rule="evenodd" d="M 177.795 137.652 C 177.795 139.537 177.795 140.48 178.381 141.066 C 178.967 141.652 179.91 141.652 181.795 141.652 L 199.629 141.652 C 201.514 141.652 202.457 141.652 203.043 141.066 C 203.629 140.48 203.629 139.537 203.629 137.652 L 203.629 130.985 C 203.629 130.514 203.629 130.278 203.482 130.132 C 203.336 129.985 203.1 129.985 202.629 129.985 L 178.795 129.985 C 178.324 129.985 178.088 129.985 177.942 130.132 C 177.795 130.278 177.795 130.514 177.795 130.985 L 177.795 137.652 Z M 184.254 133.318 C 184.254 132.847 184.254 132.611 184.4 132.465 C 184.546 132.318 184.782 132.318 185.254 132.318 L 188.42 132.318 C 188.892 132.318 189.127 132.318 189.274 132.465 C 189.42 132.611 189.42 132.847 189.42 133.318 L 189.42 133.652 C 189.42 134.123 189.42 134.359 189.274 134.505 C 189.127 134.652 188.892 134.652 188.42 134.652 L 185.254 134.652 C 184.782 134.652 184.546 134.652 184.4 134.505 C 184.254 134.359 184.254 134.123 184.254 133.652 L 184.254 133.318 Z M 184.4 137.132 C 184.254 137.278 184.254 137.514 184.254 137.985 L 184.254 138.318 C 184.254 138.79 184.254 139.026 184.4 139.172 C 184.546 139.318 184.782 139.318 185.254 139.318 L 188.42 139.318 C 188.892 139.318 189.127 139.318 189.274 139.172 C 189.42 139.026 189.42 138.79 189.42 138.318 L 189.42 137.985 C 189.42 137.514 189.42 137.278 189.274 137.132 C 189.127 136.985 188.892 136.985 188.42 136.985 L 185.254 136.985 C 184.782 136.985 184.546 136.985 184.4 137.132 Z M 192.004 133.318 C 192.004 132.847 192.004 132.611 192.15 132.465 C 192.296 132.318 192.532 132.318 193.004 132.318 L 196.17 132.318 C 196.642 132.318 196.877 132.318 197.024 132.465 C 197.17 132.611 197.17 132.847 197.17 133.318 L 197.17 133.652 C 197.17 134.123 197.17 134.359 197.024 134.505 C 196.877 134.652 196.642 134.652 196.17 134.652 L 193.004 134.652 C 192.532 134.652 192.296 134.652 192.15 134.505 C 192.004 134.359 192.004 134.123 192.004 133.652 L 192.004 133.318 Z M 192.15 137.132 C 192.004 137.278 192.004 137.514 192.004 137.985 L 192.004 138.318 C 192.004 138.79 192.004 139.026 192.15 139.172 C 192.296 139.318 192.532 139.318 193.004 139.318 L 196.17 139.318 C 196.642 139.318 196.877 139.318 197.024 139.172 C 197.17 139.026 197.17 138.79 197.17 138.318 L 197.17 137.985 C 197.17 137.514 197.17 137.278 197.024 137.132 C 196.877 136.985 196.642 136.985 196.17 136.985 L 193.004 136.985 C 192.532 136.985 192.296 136.985 192.15 137.132 Z" fill="#222222"/><path d="M 184.254 120.506 L 184.254 122.985" stroke="#222222" stroke-width="2" stroke-linecap="round" style=""/><path d="M 197.17 120.468 L 197.17 122.985" stroke="#222222" stroke-width="2" stroke-linecap="round" style=""/></svg>